<?xml version="1.0" encoding="UTF-8"?>
<svg id="Capa_1" data-name="Capa 1" xmlns="http://www.w3.org/2000/svg" viewBox="0 0 374 1080">
  <defs>
    <style>
      .cls-1 {
        fill: #c1c818;
      }

      .cls-2 {
        fill: #3e9e39;
      }

      .cls-3 {
        fill: #068b3e;
      }

      .cls-4 {
        fill: #8fb428;
      }
    </style>
  </defs>
  <path class="cls-2" d="M210.38,0c-63.47,58.91-123,86.71-168.85,99.54-15.54,4.35-29.51,6.98-41.53,8.52v-9.26c2.44-5.09,5.11-10.27,8.02-15.54C22.74,56.66,43.74,28.02,73.71,0h136.67Z"/>
  <path class="cls-3" d="M73.71,0C43.74,28.02,22.74,56.66,8.02,83.26c-2.91,5.27-5.58,10.45-8.02,15.54V0h73.71Z"/>
  <path class="cls-4" d="M288.74,0c-16.27,25.78-37.52,68.28-46.95,125.08-49.76,12.4-91.45,32.87-125.74,55.99-31.09-27.99-63.59-46.31-89.97-58-9.63-4.27-18.45-7.65-26.08-10.3v-4.71c12.02-1.54,25.99-4.17,41.53-8.52C87.38,86.71,146.91,58.91,210.38,0h78.36Z"/>
  <path class="cls-1" d="M374,521.16v558.84H0v-266.69c113.72-53.21,258.46-217.26,219.46-439.31-10.13-57.71-30.81-103.43-56.12-139.54-14.6-20.85-30.75-38.49-47.29-53.39,34.29-23.12,75.98-43.59,125.74-55.99-3.71,22.33-5.6,46.87-4.64,73.48,3.15,87.13,36.82,196.4,136.85,322.6Z"/>
  <path class="cls-2" d="M116.05,181.07C55.34,222.01,17.86,271.25,0,298.75V112.77c7.63,2.65,16.45,6.03,26.08,10.3,26.38,11.69,58.88,30.01,89.97,58Z"/>
  <path class="cls-4" d="M0,813.31V298.75c17.86-27.5,55.34-76.74,116.05-117.68,16.54,14.9,32.69,32.54,47.29,53.39,25.31,36.11,45.99,81.83,56.12,139.54C258.46,596.05,113.72,760.1,0,813.31Z"/>
  <path class="cls-4" d="M374,113.35v407.81c-100.03-126.2-133.7-235.47-136.85-322.6-.96-26.61.93-51.15,4.64-73.48,29.8-7.45,62.49-11.99,98.21-12.47,11.04-.16,22.37.08,34,.74Z"/>
  <path class="cls-2" d="M374,0v113.35c-11.63-.66-22.96-.9-34-.74-35.72.48-68.41,5.02-98.21,12.47,9.43-56.8,30.68-99.3,46.95-125.08h85.26Z"/>
</svg>