<svg width="1920" height="85" viewBox="0 0 1920 85" fill="none" xmlns="http://www.w3.org/2000/svg">
<mask id="mask0_331_779" style="mask-type:alpha" maskUnits="userSpaceOnUse" x="0" y="0" width="1920" height="85">
<rect width="1920" height="85" fill="#C1C818"/>
</mask>
<g mask="url(#mask0_331_779)">
<rect width="1920" height="85" fill="#C1C818"/>
<path d="M-7.17894e-06 6.12854C45.8311 35.053 121.387 72.8308 222.364 89.5952C244.409 178.057 280.8 252.173 321.902 313.133C272.142 368.404 239.573 426.182 218.791 473.08C211.2 490.2 205.191 505.88 200.48 519.444L192.107 519.444C189.369 498.075 184.693 473.24 176.96 445.613C154.151 364.102 104.729 258.271 -1.08966e-06 145.435L-7.17894e-06 6.12854Z" fill="#8FB428"/>
<path d="M926.506 -145.445L1920 -145.445L1920 519.444L1445.88 519.444C1351.29 317.275 1059.64 59.9596 664.889 129.293C562.293 147.302 481.013 184.066 416.818 229.062C379.751 255.017 348.391 283.729 321.902 313.133C280.8 252.173 244.409 178.057 222.364 89.5952C262.062 96.1908 305.689 99.5508 352.995 97.8441C507.893 92.2441 702.151 32.3863 926.506 -145.445Z" fill="#C1C818"/>
<path d="M1229.98 -89.9026C1343.57 78.5474 1480.18 182.542 1556.48 232.097L1040.48 232.097C1047.83 210.927 1057.21 186.454 1069.06 159.734C1101.49 86.5384 1152.32 -3.6382 1229.98 -89.9026Z" fill="#3E9E39"/>
<path d="M2984.48 232.097L1556.96 232.097C1480.66 182.537 1344.06 78.5334 1230.48 -89.9319C1271.82 -135.829 1320.75 -180.644 1378.6 -221.158C1478.78 -291.391 1605.62 -348.776 1765.72 -376.886C2381.74 -485.108 2836.86 -83.4664 2984.48 232.097Z" fill="#8FB428"/>
<path d="M138.991 -145.445L1038.25 -145.445C759.969 74.9024 519.018 149.071 326.887 156.01C268.21 158.125 214.096 153.961 164.856 145.789C148.428 80.1451 138.417 8.13525 137.359 -70.5491C137.006 -94.8681 137.535 -119.826 138.991 -145.445Z" fill="#8FB428"/>
<path d="M-111.747 -145.445L138.37 -145.445C136.914 -119.846 136.384 -94.9086 136.737 -70.6091C137.796 8.01218 147.814 79.9643 164.253 145.555C38.9191 124.8 -54.8609 78.0274 -111.747 42.2164L-111.747 -145.445Z" fill="#3E9E39"/>
</g>
</svg>
